<svg width="14" height="14" viewBox="0 0 14 14" fill="none" xmlns="http://www.w3.org/2000/svg">
<g clip-path="url(#clip0_286_12262)">
<path d="M13.9103 13.838V13.8374H13.9136V9.10075C13.9136 6.78353 13.3981 4.99854 10.5986 4.99854C9.25273 4.99854 8.34958 5.71318 7.98087 6.39069H7.94194V5.21487H5.28754V13.8374H8.05149V9.56785C8.05149 8.44368 8.27172 7.35665 9.71043 7.35665C11.128 7.35665 11.1491 8.63956 11.1491 9.63996V13.838H13.9103Z" fill="white"/>
<path d="M0.785583 5.21582H3.55288V13.8384H0.785583V5.21582Z" fill="white"/>
<path d="M2.1696 0.922852C1.2848 0.922852 0.566833 1.61759 0.566833 2.47376C0.566833 3.32993 1.2848 4.0392 2.1696 4.0392C3.0544 4.0392 3.77236 3.32993 3.77236 2.47376C3.7718 1.61759 3.05384 0.922852 2.1696 0.922852V0.922852Z" fill="white"/>
</g>
<defs>
<clipPath id="clip0_286_12262">
<rect width="13.3471" height="12.9153" fill="white" transform="translate(0.566833 0.922852)"/>
</clipPath>
</defs>
</svg>
