<svg width="13" height="13" viewBox="0 0 13 13" fill="none" xmlns="http://www.w3.org/2000/svg">
<g clip-path="url(#clip0_286_12269)">
<path d="M12.1425 3.57065C11.9959 2.95443 11.475 2.4998 10.8479 2.43198C9.36302 2.27158 7.86007 2.27075 6.36405 2.27158C4.86777 2.27075 3.36458 2.27158 1.87968 2.43198C1.25299 2.4998 0.732475 2.95443 0.585876 3.57065C0.377226 4.44822 0.374878 5.40617 0.374878 6.30969C0.374878 7.21322 0.374878 8.17104 0.583528 9.04849C0.729879 9.6646 1.25052 10.1192 1.87758 10.1872C3.36235 10.3477 4.86542 10.3485 6.3617 10.3477C7.85822 10.3485 9.36092 10.3477 10.8456 10.1872C11.4723 10.1194 11.9933 9.66472 12.1399 9.04849C12.3486 8.17092 12.3494 7.2131 12.3494 6.30969C12.3494 5.40617 12.3511 4.44822 12.1425 3.57065ZM4.81685 8.10813C4.81685 6.8264 4.81685 5.55807 4.81685 4.27623C6.08593 4.91697 7.3466 5.55341 8.62372 6.1981C7.35056 6.83705 6.08927 7.46966 4.81685 8.10813Z" fill="white"/>
</g>
<defs>
<clipPath id="clip0_286_12269">
<rect width="11.9745" height="11.5871" fill="white" transform="translate(0.374878 0.515625)"/>
</clipPath>
</defs>
</svg>
