<svg width="290" height="326" viewBox="0 0 290 326" fill="none" xmlns="http://www.w3.org/2000/svg">
<path d="M1.09892 324.064L1.09859 325.262L0.119141 325.261L173.177 325.39H289.513C289.243 318.39 287.259 311.563 283.735 305.505C280.211 299.448 275.254 294.346 269.297 290.646C263.341 286.945 256.567 284.759 249.569 284.279C242.571 283.799 235.562 285.04 229.155 287.892C227.786 282.403 224.618 277.529 220.156 274.044C215.695 270.56 210.194 268.665 204.53 268.661C204.53 268.2 204.482 267.748 204.425 267.303C204.708 265.146 204.526 262.954 203.891 260.873C203.257 258.793 202.184 256.872 200.746 255.238C199.308 253.605 197.537 252.298 195.551 251.403C193.566 250.509 191.412 250.049 189.234 250.054C187.357 250.056 185.496 250.404 183.744 251.081C183.319 248.241 182.103 245.578 180.234 243.396C178.365 241.214 175.92 239.601 173.177 238.74L165.687 219H153.541L146.188 238.409C145.221 238.188 144.233 238.074 143.241 238.069C139.753 238.071 136.408 239.457 133.942 241.921C131.476 244.385 130.091 247.726 130.091 251.21C130.096 251.849 130.148 252.487 130.245 253.119C130.245 253.264 130.196 253.402 130.18 253.547C127.224 252.447 124.045 252.078 120.915 252.471C117.785 252.864 114.796 254.008 112.204 255.804C109.613 257.6 107.495 259.996 106.031 262.787C104.567 265.578 103.801 268.681 103.798 271.831C103.113 271.718 102.42 271.659 101.726 271.654C99.3277 271.653 96.9799 272.338 94.9596 273.628C92.9392 274.918 91.3308 276.758 90.3244 278.932C83.8517 274.668 76.3435 272.236 68.5975 271.893C60.8514 271.55 53.1571 273.309 46.3319 276.983C39.5068 280.658 33.8059 286.11 29.835 292.761C25.8641 299.412 23.7716 307.013 23.7798 314.756C23.7798 315.379 23.7798 316.002 23.8284 316.624C23.8284 316.826 23.8284 317.037 23.8284 317.239C22.6922 315.482 21.1335 314.038 19.2947 313.038C17.4559 312.038 15.3956 311.514 13.3017 311.513C6.36226 311.513 0.119141 318.347 0.119141 325.261" fill="#F8FAFF"/>
<path d="M172.99 183.968H143.249C143.249 183.968 133.532 194.166 134.843 209.167C136.36 207.457 138.015 205.875 139.791 204.436C139.879 204.372 139.985 204.336 140.094 204.332C140.203 204.328 140.31 204.356 140.403 204.413C140.496 204.471 140.57 204.554 140.615 204.653C140.66 204.752 140.675 204.862 140.657 204.97C140.131 208.358 140.585 218.515 158.099 235.789C175.614 218.515 176.067 208.358 175.541 204.97C175.522 204.861 175.536 204.749 175.582 204.648C175.627 204.548 175.702 204.463 175.796 204.405C175.891 204.348 176 204.32 176.111 204.325C176.221 204.331 176.327 204.369 176.416 204.436C178.19 205.874 179.842 207.457 181.355 209.167C182.732 194.166 172.99 183.968 172.99 183.968Z" fill="url(#paint0_linear_2658_730)"/>
<path d="M158.051 172.404C158.051 172.404 139.022 187.486 158.051 213.461C177.072 187.486 158.051 172.404 158.051 172.404Z" fill="#FFE697"/>
<path d="M158.051 182.044C158.051 182.044 146.715 191.052 158.051 206.571C169.42 191.052 158.051 182.044 158.051 182.044Z" fill="white"/>
<path d="M136.706 177.159L138.86 181.324C139.312 182.193 139.994 182.922 140.832 183.431C141.67 183.941 142.632 184.21 143.613 184.211H172.27C173.251 184.21 174.213 183.941 175.051 183.431C175.889 182.922 176.571 182.193 177.023 181.324L179.185 177.159H136.706Z" fill="#949494" stroke="#424242" stroke-width="2" stroke-miterlimit="10"/>
<path d="M130.584 169.267L133.361 174.628C133.944 175.748 134.822 176.687 135.901 177.343C136.981 177.999 138.22 178.347 139.483 178.348H176.399C177.663 178.347 178.902 178 179.982 177.344C181.061 176.688 181.939 175.749 182.521 174.628L185.306 169.267H130.584Z" fill="#4D4D4D" stroke="#424242" stroke-width="2" stroke-miterlimit="10"/>
<path d="M184.327 128.21C184.327 128.21 230.895 144.181 227.931 190.915C227.931 190.915 188.723 151.023 167.387 159.562L184.327 128.21Z" fill="#F8CE67"/>
<path d="M131.912 128.21C131.912 128.21 85.3439 144.181 88.3076 190.915C88.3076 190.915 127.515 151.023 148.852 159.562L131.912 128.21Z" fill="#F8CE67"/>
<path d="M180.554 38.8587C175.049 24.8401 167.421 11.7487 157.938 0.0419922C148.546 11.6261 140.974 24.5704 135.483 38.4301C150.327 34.9893 165.778 35.1363 180.554 38.8587Z" fill="#F8CE67"/>
<path d="M181.169 40.4437L180.545 38.8263C155.637 32.4377 135.459 38.4058 135.459 38.4058L134.649 40.4113C114.065 93.6468 123.394 151.435 126.705 167.746C126.969 169.019 127.664 170.162 128.673 170.984C129.681 171.806 130.942 172.256 132.244 172.259H183.574C184.875 172.256 186.136 171.806 187.145 170.984C188.153 170.162 188.848 169.019 189.112 167.746C192.424 151.467 201.76 93.6791 181.169 40.4437Z" fill="white"/>
<path d="M157.006 100.957C167.556 100.957 176.108 92.4163 176.108 81.8805C176.108 71.3447 167.556 62.8037 157.006 62.8037C146.456 62.8037 137.904 71.3447 137.904 81.8805C137.904 92.4163 146.456 100.957 157.006 100.957Z" fill="#043146" stroke="#424242" stroke-width="2" stroke-miterlimit="10"/>
<path d="M163.46 96.2829C170.931 93.2317 174.511 84.7093 171.456 77.2475C168.401 69.7857 159.867 66.2102 152.396 69.2613C144.924 72.3125 141.344 80.835 144.399 88.2968C147.454 95.7586 155.988 99.3341 163.46 96.2829Z" fill="#7C7C7C" stroke="#424242" stroke-width="2" stroke-miterlimit="10"/>
<path d="M157.007 96.3397C165.003 96.3397 171.485 89.8661 171.485 81.8805C171.485 73.8949 165.003 67.4213 157.007 67.4213C149.01 67.4213 142.528 73.8949 142.528 81.8805C142.528 89.8661 149.01 96.3397 157.007 96.3397Z" fill="#3EC2E5" stroke="#424242" stroke-width="2" stroke-miterlimit="10"/>
<g opacity="0.08">
<path opacity="0.08" d="M157.929 69.8716C160.647 69.8714 163.31 70.6369 165.611 72.0803C167.913 73.5237 169.761 75.5863 170.941 78.0312C170.406 76.0968 169.473 74.2952 168.202 72.741C166.93 71.1869 165.349 69.9144 163.557 69.0048C161.766 68.0951 159.805 67.5682 157.798 67.4577C155.792 67.3472 153.785 67.6555 151.904 68.3629C150.024 69.0703 148.311 70.1614 146.877 71.5665C145.442 72.9715 144.316 74.6598 143.571 76.5236C142.826 78.3874 142.478 80.3858 142.549 82.3914C142.62 84.397 143.109 86.3657 143.985 88.172C143.383 86.0261 143.287 83.7699 143.705 81.5808C144.124 79.3917 145.045 77.3292 146.396 75.5557C147.747 73.7821 149.492 72.3458 151.493 71.3595C153.494 70.3732 155.697 69.8639 157.929 69.8716Z" fill="black" stroke="#424242" stroke-width="2" stroke-miterlimit="10"/>
</g>
<path d="M158.131 134.032C142.528 169.501 158.131 200.166 158.131 200.166C158.131 200.166 173.735 169.501 158.131 134.032Z" fill="#F8CE67"/>
<defs>
<linearGradient id="paint0_linear_2658_730" x1="158.132" y1="183.968" x2="158.132" y2="235.789" gradientUnits="userSpaceOnUse">
<stop offset="0.01" stop-color="#F7BD6F"/>
<stop offset="0.45" stop-color="#F39958"/>
<stop offset="1" stop-color="#ED6637"/>
</linearGradient>
</defs>
</svg>
