<svg width="77" height="34" viewBox="0 0 77 34" fill="none" xmlns="http://www.w3.org/2000/svg">
<path d="M0.776 26.1045V0.90449H5.456V22.0005H19.028V26.1045H0.776ZM19.7263 17.1405C19.7263 14.3565 20.5663 12.0765 22.2463 10.3005C23.9503 8.52449 26.1223 7.63649 28.7623 7.63649C31.4023 7.63649 33.5623 8.52449 35.2423 10.3005C36.9463 12.0765 37.7983 14.3565 37.7983 17.1405C37.7983 19.9485 36.9463 22.2405 35.2423 24.0165C33.5383 25.7685 31.3783 26.6445 28.7623 26.6445C26.1703 26.6445 24.0103 25.7445 22.2823 23.9445C20.5783 22.1445 19.7263 19.8765 19.7263 17.1405ZM33.2623 17.2125C33.2623 15.2925 32.8423 13.8165 32.0023 12.7845C31.1863 11.7285 30.1063 11.2005 28.7623 11.2005C27.3703 11.2005 26.2663 11.7285 25.4503 12.7845C24.6583 13.8165 24.2623 15.2925 24.2623 17.2125C24.2623 19.1085 24.6583 20.5605 25.4503 21.5685C26.2663 22.5765 27.3703 23.0805 28.7623 23.0805C30.1543 23.0805 31.2463 22.5765 32.0383 21.5685C32.8543 20.5605 33.2623 19.1085 33.2623 17.2125ZM39.1692 29.4525C39.1692 27.9165 39.9132 26.7045 41.4012 25.8165C40.2972 25.0965 39.7452 24.0525 39.7452 22.6845C39.7452 21.1965 40.6692 19.9005 42.5172 18.7965C41.1972 17.7165 40.5372 16.2285 40.5372 14.3325C40.5372 12.3885 41.2452 10.7925 42.6612 9.54449C44.1012 8.27249 45.9132 7.63649 48.0972 7.63649C49.6092 7.63649 50.9412 7.96049 52.0932 8.60849C53.2692 9.23249 54.1452 10.0605 54.7212 11.0925C54.8412 10.0365 55.1292 9.29249 55.5852 8.86049C56.0412 8.40449 56.7972 8.17649 57.8532 8.17649H59.4012V11.5965H57.6372C56.9652 11.5965 56.4972 11.7405 56.2332 12.0285C55.9932 12.2925 55.8372 12.8925 55.7652 13.8285L55.6932 14.3685C55.5252 16.3365 54.7572 17.8965 53.3892 19.0485C52.0212 20.2005 50.2932 20.7765 48.2052 20.7765C46.6692 20.7765 45.4812 20.5605 44.6412 20.1285C43.6572 20.4645 43.1652 20.9565 43.1652 21.6045C43.1652 22.2285 43.7412 22.5405 44.8932 22.5405H52.6332C54.4092 22.5405 55.8612 23.0445 56.9892 24.0525C58.1172 25.0365 58.6812 26.2845 58.6812 27.7965C58.6812 29.4525 58.1172 30.7485 56.9892 31.6845C55.8612 32.6445 54.4092 33.1245 52.6332 33.1245H44.3172C40.8852 33.1245 39.1692 31.9005 39.1692 29.4525ZM50.6892 16.8165C51.3372 16.1685 51.6612 15.3285 51.6612 14.2965C51.6612 13.2645 51.3372 12.4245 50.6892 11.7765C50.0652 11.1045 49.2372 10.7685 48.2052 10.7685C47.1732 10.7685 46.3332 11.1045 45.6852 11.7765C45.0612 12.4245 44.7492 13.2645 44.7492 14.2965C44.7492 15.3285 45.0612 16.1685 45.6852 16.8165C46.3092 17.4405 47.1492 17.7525 48.2052 17.7525C49.2372 17.7525 50.0652 17.4405 50.6892 16.8165ZM44.8932 29.7765H51.8772C53.5092 29.7765 54.3252 29.1525 54.3252 27.9045C54.3252 26.7045 53.5092 26.1045 51.8772 26.1045H43.8132C43.0692 26.5125 42.6972 27.1485 42.6972 28.0125C42.6972 29.1885 43.4292 29.7765 44.8932 29.7765ZM58.6992 17.1405C58.6992 14.3565 59.5392 12.0765 61.2192 10.3005C62.9232 8.52449 65.0952 7.63649 67.7352 7.63649C70.3752 7.63649 72.5352 8.52449 74.2152 10.3005C75.9192 12.0765 76.7712 14.3565 76.7712 17.1405C76.7712 19.9485 75.9192 22.2405 74.2152 24.0165C72.5112 25.7685 70.3512 26.6445 67.7352 26.6445C65.1432 26.6445 62.9832 25.7445 61.2552 23.9445C59.5512 22.1445 58.6992 19.8765 58.6992 17.1405ZM72.2352 17.2125C72.2352 15.2925 71.8152 13.8165 70.9752 12.7845C70.1592 11.7285 69.0792 11.2005 67.7352 11.2005C66.3432 11.2005 65.2392 11.7285 64.4232 12.7845C63.6312 13.8165 63.2352 15.2925 63.2352 17.2125C63.2352 19.1085 63.6312 20.5605 64.4232 21.5685C65.2392 22.5765 66.3432 23.0805 67.7352 23.0805C69.1272 23.0805 70.2192 22.5765 71.0112 21.5685C71.8272 20.5605 72.2352 19.1085 72.2352 17.2125Z" fill="#A259FF"/>
</svg>
