<svg width="43" height="42" viewBox="0 0 43 42" fill="none" xmlns="http://www.w3.org/2000/svg">
<path d="M42 21.0672C42 31.9984 32.8375 40.8877 21.5 40.8877C10.1625 40.8877 1 31.9984 1 21.0672C1 10.1359 10.1625 1.24658 21.5 1.24658C32.8375 1.24658 42 10.1359 42 21.0672Z" fill="#101010" stroke="#272727"/>
<path d="M23.1823 13.5299C24.1997 13.722 25.1348 14.2035 25.8678 14.9128C26.6008 15.6221 27.0984 16.5269 27.2969 17.5114M23.1823 9.49805C25.2961 9.72528 27.2673 10.6413 28.7721 12.0956C30.277 13.5499 31.226 15.4561 31.4635 17.5013M30.4219 25.5449V28.5688C30.423 28.8495 30.3636 29.1273 30.2474 29.3845C30.1312 29.6418 29.9607 29.8726 29.7469 30.0624C29.5332 30.2522 29.2808 30.3967 29.006 30.4866C28.7312 30.5766 28.44 30.61 28.151 30.5847C24.9457 30.2477 21.8667 29.1878 19.1614 27.4902C16.6446 25.9427 14.5108 23.8779 12.9114 21.4424C11.151 18.8129 10.0555 15.819 9.71353 12.7034C9.6875 12.4246 9.72174 12.1437 9.81405 11.8785C9.90637 11.6133 10.0548 11.3695 10.2497 11.1628C10.4447 10.9561 10.6821 10.791 10.9466 10.6779C11.2112 10.5648 11.4972 10.5063 11.7864 10.506H14.9114C15.417 10.5012 15.9071 10.6744 16.2904 10.9934C16.6737 11.3124 16.924 11.7553 16.9948 12.2397C17.1267 13.2074 17.3713 14.1576 17.7239 15.0721C17.8641 15.4329 17.8944 15.825 17.8114 16.2019C17.7283 16.5788 17.5353 16.9248 17.2552 17.1989L15.9323 18.479C17.4152 21.0025 19.5744 23.0919 22.1823 24.5268L23.5052 23.2467C23.7884 22.9757 24.146 22.7889 24.5355 22.7085C24.9251 22.6281 25.3303 22.6575 25.7031 22.7931C26.6482 23.1344 27.6301 23.3711 28.6302 23.4987C29.1362 23.5678 29.5983 23.8144 29.9287 24.1917C30.259 24.5689 30.4345 25.0505 30.4219 25.5449Z" stroke="#A259FF" stroke-width="0.9" stroke-linecap="round" stroke-linejoin="round"/>
</svg>
