<svg width="43" height="42" viewBox="0 0 43 42" fill="none" xmlns="http://www.w3.org/2000/svg">
<path d="M42 21.1045C42 32.0358 32.8375 40.9251 21.5 40.9251C10.1625 40.9251 1 32.0358 1 21.1045C1 10.1733 10.1625 1.28394 21.5 1.28394C32.8375 1.28394 42 10.1733 42 21.1045Z" fill="#101010" stroke="#272727"/>
<g clip-path="url(#clip0_286_12286)">
<path d="M31.127 18.8505C31.127 26.7529 21.002 33.5265 21.002 33.5265C21.002 33.5265 10.877 26.7529 10.877 18.8505C10.877 16.1558 11.9437 13.5715 13.8425 11.6661C15.7413 9.76064 18.3166 8.69019 21.002 8.69019C23.6873 8.69019 26.2626 9.76064 28.1614 11.6661C30.0602 13.5715 31.127 16.1558 31.127 18.8505Z" stroke="#A259FF" stroke-width="1.08" stroke-linecap="round" stroke-linejoin="round"/>
<path d="M21 22.2374C22.864 22.2374 24.375 20.7211 24.375 18.8506C24.375 16.9802 22.864 15.4639 21 15.4639C19.136 15.4639 17.625 16.9802 17.625 18.8506C17.625 20.7211 19.136 22.2374 21 22.2374Z" stroke="#A259FF" stroke-width="1.08" stroke-linecap="round" stroke-linejoin="round"/>
</g>
<defs>
<clipPath id="clip0_286_12286">
<rect width="27" height="27.0941" fill="white" transform="translate(7.5 7.55835)"/>
</clipPath>
</defs>
</svg>
