<svg width="77" height="34" viewBox="0 0 77 34" fill="none" xmlns="http://www.w3.org/2000/svg">
<path d="M0.276 26V0.799998H4.956V21.896H18.528V26H0.276ZM19.2263 17.036C19.2263 14.252 20.0663 11.972 21.7463 10.196C23.4503 8.42 25.6223 7.532 28.2623 7.532C30.9023 7.532 33.0623 8.42 34.7423 10.196C36.4463 11.972 37.2983 14.252 37.2983 17.036C37.2983 19.844 36.4463 22.136 34.7423 23.912C33.0383 25.664 30.8783 26.54 28.2623 26.54C25.6703 26.54 23.5103 25.64 21.7823 23.84C20.0783 22.04 19.2263 19.772 19.2263 17.036ZM32.7623 17.108C32.7623 15.188 32.3423 13.712 31.5023 12.68C30.6863 11.624 29.6063 11.096 28.2623 11.096C26.8703 11.096 25.7663 11.624 24.9503 12.68C24.1583 13.712 23.7623 15.188 23.7623 17.108C23.7623 19.004 24.1583 20.456 24.9503 21.464C25.7663 22.472 26.8703 22.976 28.2623 22.976C29.6543 22.976 30.7463 22.472 31.5383 21.464C32.3543 20.456 32.7623 19.004 32.7623 17.108ZM38.6692 29.348C38.6692 27.812 39.4132 26.6 40.9012 25.712C39.7972 24.992 39.2452 23.948 39.2452 22.58C39.2452 21.092 40.1692 19.796 42.0172 18.692C40.6972 17.612 40.0372 16.124 40.0372 14.228C40.0372 12.284 40.7452 10.688 42.1612 9.44C43.6012 8.168 45.4132 7.532 47.5972 7.532C49.1092 7.532 50.4412 7.856 51.5932 8.504C52.7692 9.128 53.6452 9.956 54.2212 10.988C54.3412 9.932 54.6292 9.188 55.0852 8.756C55.5412 8.3 56.2972 8.072 57.3532 8.072H58.9012V11.492H57.1372C56.4652 11.492 55.9972 11.636 55.7332 11.924C55.4932 12.188 55.3372 12.788 55.2652 13.724L55.1932 14.264C55.0252 16.232 54.2572 17.792 52.8892 18.944C51.5212 20.096 49.7932 20.672 47.7052 20.672C46.1692 20.672 44.9812 20.456 44.1412 20.024C43.1572 20.36 42.6652 20.852 42.6652 21.5C42.6652 22.124 43.2412 22.436 44.3932 22.436H52.1332C53.9092 22.436 55.3612 22.94 56.4892 23.948C57.6172 24.932 58.1812 26.18 58.1812 27.692C58.1812 29.348 57.6172 30.644 56.4892 31.58C55.3612 32.54 53.9092 33.02 52.1332 33.02H43.8172C40.3852 33.02 38.6692 31.796 38.6692 29.348ZM50.1892 16.712C50.8372 16.064 51.1612 15.224 51.1612 14.192C51.1612 13.16 50.8372 12.32 50.1892 11.672C49.5652 11 48.7372 10.664 47.7052 10.664C46.6732 10.664 45.8332 11 45.1852 11.672C44.5612 12.32 44.2492 13.16 44.2492 14.192C44.2492 15.224 44.5612 16.064 45.1852 16.712C45.8092 17.336 46.6492 17.648 47.7052 17.648C48.7372 17.648 49.5652 17.336 50.1892 16.712ZM44.3932 29.672H51.3772C53.0092 29.672 53.8252 29.048 53.8252 27.8C53.8252 26.6 53.0092 26 51.3772 26H43.3132C42.5692 26.408 42.1972 27.044 42.1972 27.908C42.1972 29.084 42.9292 29.672 44.3932 29.672ZM58.1992 17.036C58.1992 14.252 59.0392 11.972 60.7192 10.196C62.4232 8.42 64.5952 7.532 67.2352 7.532C69.8752 7.532 72.0352 8.42 73.7152 10.196C75.4192 11.972 76.2712 14.252 76.2712 17.036C76.2712 19.844 75.4192 22.136 73.7152 23.912C72.0112 25.664 69.8512 26.54 67.2352 26.54C64.6432 26.54 62.4832 25.64 60.7552 23.84C59.0512 22.04 58.1992 19.772 58.1992 17.036ZM71.7352 17.108C71.7352 15.188 71.3152 13.712 70.4752 12.68C69.6592 11.624 68.5792 11.096 67.2352 11.096C65.8432 11.096 64.7392 11.624 63.9232 12.68C63.1312 13.712 62.7352 15.188 62.7352 17.108C62.7352 19.004 63.1312 20.456 63.9232 21.464C64.7392 22.472 65.8432 22.976 67.2352 22.976C68.6272 22.976 69.7192 22.472 70.5112 21.464C71.3272 20.456 71.7352 19.004 71.7352 17.108Z" fill="#333333"/>
</svg>
